<svg width="15" height="19" fill="none" xmlns="http://www.w3.org/2000/svg"><path fill-rule="evenodd" clip-rule="evenodd" d="M7.5 0C6.672 0 6 .654 6 1.462c0 .062.016.122.023.182C3.43 2.29 1.5 4.584 1.5 7.308v6.577c0 .412-.326.73-.75.73H0v1.462h5.39c-.085.23-.14.473-.14.73C5.25 18.01 6.266 19 7.5 19s2.25-.99 2.25-2.192c0-.258-.055-.5-.14-.731H15v-1.462h-.75a.729.729 0 01-.75-.73V7.513c0-2.746-1.882-5.194-4.523-5.869.007-.06.023-.12.023-.182C9 .654 8.328 0 7.5 0zm-.328 2.923c.109-.008.217 0 .328 0h.14c2.45.072 4.36 2.165 4.36 4.59v6.372c0 .258.055.5.14.73H2.86c.085-.23.14-.472.14-.73V7.308c0-2.321 1.834-4.22 4.172-4.385zM7.5 16.077a.73.73 0 01.75.73.73.73 0 01-.75.732.73.73 0 01-.75-.731.73.73 0 01.75-.731z" fill="#fff"/></svg>