<svg width="17" height="17" fill="none" xmlns="http://www.w3.org/2000/svg"><path fill-rule="evenodd" clip-rule="evenodd" d="M8.5 0l-.177.044L.53 2.166 0 2.321V17h7.792v-2.83h1.416V17H17V2.322l-.531-.156L8.677.044 8.5 0zm0 1.459l7.083 1.923v12.203h-4.958v-2.829h-4.25v2.828H1.417V3.382L8.5 1.46zM3.542 4.267V5.68h1.416V4.267H3.542zm2.833 0V5.68h1.417V4.267H6.375zm2.833 0V5.68h1.417V4.267H9.208zm2.834 0V5.68h1.416V4.267h-1.416zm-8.5 2.83V8.51h1.416V7.096H3.542zm2.833 0V8.51h1.417V7.096H6.375zm2.833 0V8.51h1.417V7.096H9.208zm2.834 0V8.51h1.416V7.096h-1.416zm-8.5 2.829v1.415h1.416V9.926H3.542zm2.833 0v1.415h1.417V9.926H6.375zm2.833 0v1.415h1.417V9.926H9.208zm2.834 0v1.415h1.416V9.926h-1.416zm-8.5 2.83v1.414h1.416v-1.415H3.542zm8.5 0v1.414h1.416v-1.415h-1.416z" fill="#fff"/></svg>