<svg width="21" height="20" fill="none" xmlns="http://www.w3.org/2000/svg"><path fill-rule="evenodd" clip-rule="evenodd" d="M10.5 0l-.663 1.512-2.38 5.338-5.81.619L0 7.651l1.235 1.1 4.324 3.917-1.213 5.727L4.003 20l1.441-.825 5.056-2.932 5.056 2.932 1.44.825-.342-1.604-1.213-5.727 4.324-3.918L21 7.651l-1.647-.183-5.81-.618-2.38-5.338L10.5 0zm0 3.597l1.876 4.238.183.39.412.045 4.598.481-3.432 3.093-.32.298.091.412.961 4.514-4.003-2.291-.366-.23-.366.23-4.003 2.29.96-4.513.092-.412-.32-.298L3.43 8.751l4.598-.48.412-.046.183-.39L10.5 3.597z" fill="#2B2B2B"/></svg>